<svg width="900" height="280" viewBox="0 0 900 280" xmlns="http://www.w3.org/2000/svg">
  <defs>
    <linearGradient id="bg2" x1="0" y1="0" x2="1" y2="1">
      <stop offset="0%" stop-color="#0d0d13"/>
      <stop offset="100%" stop-color="#17151f"/>
    </linearGradient>
  </defs>
  <rect width="900" height="280" rx="10" fill="url(#bg2)"/>
  <rect width="900" height="280" rx="10" fill="none" stroke="#C9A66B33" stroke-width="1"/>

  <line x1="0" y1="46" x2="900" y2="46" stroke="#C9A66B22" stroke-width="1"/>
  <circle cx="26" cy="23" r="6" fill="#C9A66B44"/>
  <circle cx="48" cy="23" r="6" fill="#ffffff22"/>
  <circle cx="70" cy="23" r="6" fill="#ffffff22"/>
  <text x="96" y="28" font-family="JetBrains Mono, monospace" font-size="13" fill="#8b8577">mucaru@dev ~ % neofetch</text>

  <g font-family="JetBrains Mono, monospace" font-size="14">
    <text x="40" y="90"  fill="#C9A66B">OS</text>
    <text x="180" y="90" fill="#c9c4b8">Jakarta, Indonesia</text>

    <text x="40" y="120" fill="#C9A66B">Role</text>
    <text x="180" y="120" fill="#c9c4b8">Web Developer, Mucaru Digital Works</text>

    <text x="40" y="150" fill="#C9A66B">Focus</text>
    <text x="180" y="150" fill="#c9c4b8">Clean architecture · Interfaces that aren't generic</text>

    <text x="40" y="180" fill="#C9A66B">Shell</text>
    <text x="180" y="180" fill="#c9c4b8">Next.js / TypeScript / Tailwind</text>

    <text x="40" y="210" fill="#C9A66B">Uptime</text>
    <text x="180" y="210" fill="#c9c4b8">150 Days, 150 Web Apps — Day 13/150</text>

    <text x="40" y="240" fill="#C9A66B">Status</text>
    <text x="180" y="240" fill="#c9c4b8">Building a clinic booking system (Prisma + NextAuth)</text>
  </g>

  <g transform="translate(700,90)">
    <rect x="0" y="0" width="26" height="26" fill="#C9A66B"/>
    <rect x="30" y="0" width="26" height="26" fill="#8b8577"/>
    <rect x="60" y="0" width="26" height="26" fill="#c9c4b8"/>
    <rect x="90" y="0" width="26" height="26" fill="#e8d5a8"/>
    <rect x="0" y="30" width="26" height="26" fill="#3a3730"/>
    <rect x="30" y="30" width="26" height="26" fill="#5a564a"/>
    <rect x="60" y="30" width="26" height="26" fill="#17151f"/>
    <rect x="90" y="30" width="26" height="26" fill="#0d0d13"/>
  </g>
</svg>
